<?xml version="1.0" standalone="no"?>
<!DOCTYPE svg PUBLIC "-//W3C//DTD SVG 20010904//EN"
 "http://www.w3.org/TR/2001/REC-SVG-20010904/DTD/svg10.dtd">
<svg version="1.0" xmlns="http://www.w3.org/2000/svg"
 width="204.000000pt" height="192.000000pt" viewBox="0 0 204.000000 192.000000"
 preserveAspectRatio="xMidYMid meet">

<g transform="translate(0.000000,192.000000) scale(0.100000,-0.100000)"
fill="#000000" stroke="none">
<path d="M1005 1368 c-27 -15 -35 -28 -35 -59 0 -21 -6 -28 -30 -33 -34 -6
-60 -52 -60 -106 0 -19 -5 -30 -14 -30 -22 0 -30 -72 -9 -87 12 -9 13 -13 4
-13 -10 0 -12 -12 -9 -45 3 -25 2 -45 -1 -45 -4 0 -8 -36 -8 -80 -1 -60 -6
-88 -21 -112 -20 -33 -34 -76 -37 -113 -2 -11 -6 -39 -10 -63 -8 -42 -8 -42
23 -42 29 0 31 2 26 28 -4 21 3 44 25 84 17 30 31 63 31 72 0 10 8 30 19 44
10 15 21 38 24 52 16 67 51 73 87 15 12 -19 28 -35 37 -37 13 -3 16 -22 18
-123 l2 -120 62 -3 c60 -3 82 10 41 23 -41 13 -51 44 -41 136 8 77 6 89 -16
144 -14 33 -34 70 -44 84 -22 28 -25 51 -5 51 25 0 36 86 14 108 -20 20 -3 23
36 7 26 -11 42 -13 55 -5 19 10 41 58 41 90 0 30 23 39 120 47 l95 7 -55 9
c-94 14 -251 22 -272 14 -27 -10 -35 -1 -20 23 18 30 14 57 -10 74 -26 19 -36
19 -63 4z m165 -168 c-12 -23 -30 -27 -30 -7 0 17 10 27 27 27 11 0 11 -5 3
-20z"/>
<path d="M25 955 c-23 -22 -25 -31 -25 -125 0 -94 2 -103 25 -125 23 -24 30
-25 137 -25 122 0 158 12 158 51 0 18 -8 19 -120 19 l-120 0 0 85 0 85 120 0
c98 0 120 3 120 14 0 34 -41 46 -158 46 -107 0 -114 -1 -137 -25z"/>
<path d="M418 970 c-23 -14 -41 -74 -33 -110 11 -50 37 -60 157 -60 l108 0 0
-30 0 -30 -130 0 c-80 0 -130 -4 -130 -10 0 -5 9 -19 20 -30 18 -18 33 -20
140 -20 115 0 122 1 145 25 34 33 35 102 2 133 -20 19 -36 22 -132 24 -110 3
-110 3 -110 28 l0 25 128 3 c73 1 127 7 127 12 0 6 -9 19 -20 30 -18 18 -33
20 -137 20 -65 0 -126 -5 -135 -10z"/>
<path d="M1254 959 c-14 -16 -20 -40 -23 -100 -7 -165 7 -179 177 -179 95 0
113 3 136 21 24 19 26 27 26 90 l0 69 -110 0 c-60 0 -110 -4 -110 -8 0 -25 39
-42 98 -42 l62 0 0 -35 0 -35 -105 0 -105 0 0 85 c0 47 -1 88 -2 93 -2 4 60 9
137 12 l140 5 -22 23 c-21 20 -32 22 -151 22 -118 0 -130 -2 -148 -21z"/>
<path d="M1651 954 c-18 -23 -21 -41 -21 -124 0 -143 2 -145 164 -145 161 0
160 -1 164 138 3 92 2 105 -18 130 -21 27 -22 27 -145 27 -122 0 -124 0 -144
-26z m244 -124 l0 -95 -100 0 -100 0 -3 84 c-2 46 0 90 2 98 4 11 28 13 103
11 l98 -3 0 -95z"/>
</g>
</svg>
